<svg width="150" height="20" viewBox="0 0 150 20" fill="none" xmlns="http://www.w3.org/2000/svg">
<path d="M19.8216 0H15.6752V3.70787H19.8216V0Z" fill="white"/>
<path fill-rule="evenodd" clip-rule="evenodd" d="M13.7753 18.062C13.5752 17.1627 13.3638 16.2125 13.3638 15.5688V8.74298C13.3638 4.82445 10.8424 3.53933 7.10917 3.53933C2.26933 3.53933 0.777456 6.07445 0.609357 8.57445H4.62271C4.7698 7.40872 5.19004 6.4677 7.04613 6.4677C8.90222 6.4677 9.30145 7.47192 9.30145 8.76405V9.91574H7.44537C1.96815 9.91574 0 12.2612 0 15.1124C0 17.5 1.37981 19.9438 5.2881 19.9438C7.57144 19.9438 9.04931 19.0379 9.70769 17.7528C9.73571 18.2444 9.82676 19.1994 9.94583 19.67H14.0923C14.0339 19.2239 13.9071 18.654 13.7753 18.062ZM7.51541 12.5702H9.43453V12.9003C9.43453 15.1405 8.85319 16.7907 6.37374 16.7907C4.79781 16.7907 4.15344 15.8427 4.15344 14.7823C4.15344 13.7219 4.68575 12.5702 7.51541 12.5702Z" fill="white"/>
<path d="M15.6752 5.5899H19.8216V19.67H15.6752V5.5899Z" fill="white"/>
<path d="M22.3011 9.9649C22.3011 7.36658 22.3011 5.69523 22.238 4.60675H26.2794C26.3635 5.28793 26.3915 6.29917 26.3915 7.38063C26.9238 6.05338 28.3106 4.36096 30.2367 4.35394V8.55338C27.9184 8.50422 26.4475 9.60675 26.4475 13.2374V19.6629H22.3011V9.9649Z" fill="white"/>
<path fill-rule="evenodd" clip-rule="evenodd" d="M44.0121 18.062C44.1438 18.654 44.2706 19.2239 44.329 19.67H40.1826C40.0635 19.1994 39.9724 18.2444 39.9444 17.7528C39.286 19.0379 37.8082 19.9438 35.5248 19.9438C31.6165 19.9438 30.2367 17.5 30.2367 15.1124C30.2367 12.2612 32.2049 9.91574 37.6821 9.91574H39.5382V8.76405C39.5382 7.47192 39.1389 6.4677 37.2829 6.4677C35.4268 6.4677 35.0065 7.40872 34.8594 8.57445H30.8461C31.0142 6.07445 32.5061 3.53933 37.3459 3.53933C41.0791 3.53933 43.6006 4.82445 43.6006 8.74298V15.5688C43.6006 16.2125 43.812 17.1627 44.0121 18.062ZM39.6713 12.5702H37.7521C34.9225 12.5702 34.3902 13.7219 34.3902 14.7823C34.3902 15.8427 35.0345 16.7907 36.6105 16.7907C39.0899 16.7907 39.6713 15.1405 39.6713 12.9003V12.5702Z" fill="white"/>
<path d="M48.5105 0.414323L56.0119 18.3497H56.0679L63.4922 0.414323H65.1872V19.6699H64.0035V1.875H63.9475L56.6282 19.677H55.4445L48.0482 1.875H47.9921V19.6699H46.8085V0.414323H48.5105Z" fill="white"/>
<path fill-rule="evenodd" clip-rule="evenodd" d="M68.7663 13.0407V12.8792L68.7734 12.8722H79.9659C79.9659 12.8185 79.97 12.7524 79.9751 12.6709L79.9799 12.5913C79.9939 12.4789 79.9939 12.3736 79.9939 12.2823C79.9939 11.3413 79.8609 10.4705 79.6017 9.64888C79.3426 8.83427 78.9643 8.11095 78.46 7.49298C77.9557 6.875 77.3324 6.38343 76.5899 6.02528C75.8405 5.66713 74.986 5.48455 74.0194 5.48455C72.9548 5.48455 72.0373 5.68118 71.2598 6.08848C70.4824 6.48876 69.831 7.02949 69.3127 7.70365C68.7944 8.37781 68.4021 9.16433 68.143 10.0492C67.8838 10.934 67.7508 11.8329 67.7508 12.8371C67.7508 13.8413 67.8768 14.7823 68.129 15.6531C68.3811 16.5309 68.7593 17.2823 69.2706 17.9214C69.782 18.5604 70.4193 19.066 71.1828 19.4312C71.9462 19.8034 72.8357 19.986 73.8583 19.986C75.5253 19.986 76.8631 19.5576 77.8787 18.6938C78.8873 17.8301 79.5457 16.5871 79.8539 14.9719H78.8313C78.5231 16.264 77.9698 17.2753 77.1573 18.0056C76.3448 18.736 75.2522 19.1011 73.8653 19.1011C73.0178 19.1011 72.2754 18.9396 71.638 18.6166C71.0007 18.2935 70.4684 17.8511 70.0481 17.2964C69.6209 16.7416 69.3057 16.0955 69.0885 15.3581C68.8714 14.6208 68.7663 13.8483 68.7663 13.0407ZM78.5581 9.84551C78.7752 10.5197 78.9013 11.2289 78.9363 11.9874H68.7874C68.8434 11.264 68.9905 10.5618 69.2216 9.88062C69.4528 9.19944 69.7819 8.60253 70.2162 8.08989C70.6435 7.57725 71.1758 7.16292 71.8061 6.84691C72.4365 6.5309 73.1649 6.3764 73.9914 6.3764C74.7689 6.3764 75.4553 6.52388 76.0576 6.83286C76.667 7.14185 77.1783 7.54916 77.5985 8.0618C78.0258 8.57444 78.341 9.17135 78.5581 9.84551Z" fill="white"/>
<path d="M87.4323 6.69944H84.4205V16.3834C84.4205 16.9382 84.4836 17.3806 84.6096 17.7037C84.7357 18.0267 84.9248 18.2725 85.191 18.448C85.4571 18.6236 85.7653 18.7219 86.1295 18.757C86.4938 18.7921 86.921 18.7992 87.4043 18.7851V19.677C86.886 19.7121 86.3747 19.7051 85.8844 19.6629C85.3941 19.6208 84.9529 19.4874 84.5816 19.2556C84.2034 19.0309 83.9022 18.6938 83.6781 18.2444C83.454 17.795 83.3559 17.177 83.3979 16.3834V6.69944H80.8414V5.80759H83.3979V1.49579H84.4205V5.81461H87.4323V6.69944Z" fill="white"/>
<path fill-rule="evenodd" clip-rule="evenodd" d="M98.4287 16.9242H98.4848L98.4708 16.9382V17.6685C98.4708 17.9565 98.4988 18.2163 98.5408 18.4621C98.5898 18.7008 98.6739 18.9115 98.8 19.0941C98.926 19.2697 99.1152 19.4171 99.3533 19.5225C99.5914 19.6278 99.9206 19.684 100.334 19.684C100.621 19.684 100.901 19.6489 101.167 19.5787V18.7149C100.838 18.7711 100.593 18.7992 100.411 18.7992C100.173 18.7992 99.9977 18.75 99.8716 18.6517C99.7525 18.5534 99.6615 18.4199 99.6054 18.2584C99.5564 18.0969 99.5214 17.9143 99.5144 17.7177C99.5004 17.5211 99.5004 17.3244 99.5004 17.1278V9.06601C99.5004 8.00562 99.1221 7.14185 98.3587 6.48876C97.6022 5.83567 96.3835 5.50562 94.7166 5.50562C93.0496 5.50562 91.7608 5.88483 90.8573 6.65028C89.9538 7.41573 89.4635 8.56039 89.3934 10.0913H90.416C90.4931 8.84831 90.9063 7.92135 91.6698 7.31039C92.4332 6.69944 93.4278 6.39045 94.6675 6.39045C95.368 6.39045 95.9633 6.4677 96.4466 6.60814C96.9299 6.74859 97.3221 6.94522 97.6303 7.19803C97.9385 7.45084 98.1556 7.73876 98.3027 8.0618C98.4498 8.38483 98.5198 8.73595 98.5198 9.11517C98.5198 9.59972 98.4918 10.007 98.4357 10.3301C98.3797 10.6531 98.2466 10.9199 98.0295 11.1236C97.8194 11.3272 97.4972 11.4888 97.077 11.6081C96.6567 11.7205 96.0754 11.8048 95.3399 11.861L93.75 11.9944C93.1897 12.0435 92.6153 12.1348 92.013 12.2612C91.4106 12.3876 90.8643 12.5983 90.374 12.8933C89.8767 13.1882 89.4705 13.5955 89.1483 14.1081C88.8261 14.6208 88.665 15.2809 88.665 16.0885C88.665 17.4228 89.0713 18.4059 89.8767 19.0449C90.6822 19.677 91.8239 20 93.2947 20C93.9531 20 94.5695 19.9157 95.1228 19.7542C95.6761 19.5927 96.1734 19.368 96.6147 19.0801C97.0489 18.7921 97.4201 18.4691 97.7283 18.0969C98.0365 17.7317 98.2676 17.3385 98.4287 16.9242ZM97.3431 12.4157C97.8544 12.3104 98.2326 12.1067 98.4848 11.7978V14.3961C98.4848 14.5787 98.4357 14.9228 98.3377 15.4354C98.2396 15.948 98.0085 16.4817 97.6513 17.0295C97.2871 17.5772 96.7688 18.0618 96.0894 18.4831C95.403 18.9045 94.4434 19.1152 93.3157 19.1152C92.1881 19.1152 91.2986 18.8694 90.6542 18.3708C90.0098 17.8722 89.6876 17.1138 89.6876 16.0885C89.6876 15.4424 89.8137 14.9157 90.0658 14.5084C90.318 14.1081 90.6402 13.7851 91.0464 13.5534C91.4527 13.3216 91.9009 13.1531 92.4052 13.0548C92.9095 12.9565 93.4068 12.8792 93.9111 12.823L95.6341 12.6615C96.2645 12.6053 96.8318 12.5211 97.3431 12.4157Z" fill="white"/>
<path fill-rule="evenodd" clip-rule="evenodd" d="M113.439 16.7065H113.383C112.808 17.802 112.094 18.6236 111.232 19.1713C110.371 19.7191 109.32 19.993 108.087 19.993C107.044 19.993 106.154 19.7963 105.398 19.4031C104.641 19.0098 104.025 18.4761 103.542 17.809C103.058 17.1419 102.701 16.3764 102.463 15.5056C102.232 14.6348 102.113 13.7219 102.113 12.7669C102.113 11.7416 102.239 10.7865 102.491 9.89466C102.743 9.00281 103.122 8.23736 103.633 7.59129C104.144 6.94522 104.781 6.43258 105.559 6.05337C106.329 5.67416 107.233 5.48455 108.277 5.48455C108.83 5.48455 109.383 5.5618 109.915 5.71629C110.455 5.87079 110.952 6.08848 111.407 6.3764C111.863 6.66432 112.262 7.02247 112.605 7.45786C112.948 7.88623 113.207 8.37079 113.383 8.91152H113.439V0.414323H114.461V19.6699H113.439V16.7065ZM108.305 19.1081C109.18 19.1081 109.944 18.9256 110.581 18.5674C111.218 18.2093 111.744 17.7317 112.171 17.1348C112.591 16.5449 112.906 15.8638 113.109 15.0983C113.312 14.3329 113.418 13.5534 113.418 12.7669C113.418 11.9803 113.312 11.1728 113.109 10.4073C112.906 9.64185 112.591 8.96067 112.185 8.35674C111.772 7.75281 111.239 7.27528 110.581 6.91011C109.922 6.55196 109.159 6.36938 108.284 6.36938C107.408 6.36938 106.589 6.54494 105.944 6.89607C105.3 7.24719 104.767 7.7177 104.34 8.31461C103.92 8.90449 103.612 9.5927 103.423 10.3652C103.234 11.1376 103.143 11.9382 103.143 12.7669C103.143 13.5955 103.248 14.361 103.451 15.1264C103.654 15.8919 103.969 16.566 104.389 17.1629C104.809 17.7528 105.342 18.2303 105.993 18.5815C106.638 18.9326 107.408 19.1081 108.305 19.1081Z" fill="white"/>
<path fill-rule="evenodd" clip-rule="evenodd" d="M126.837 16.9242H126.893V17.6685C126.893 17.9565 126.921 18.2163 126.963 18.4621C127.006 18.7008 127.09 18.9115 127.216 19.0941C127.342 19.2697 127.531 19.4171 127.769 19.5225C128.007 19.6278 128.336 19.684 128.75 19.684C129.037 19.684 129.317 19.6489 129.583 19.5787V18.7149C129.254 18.7711 129.002 18.7992 128.827 18.7992C128.595 18.7992 128.413 18.75 128.287 18.6517C128.161 18.5534 128.07 18.4199 128.021 18.2584C127.972 18.0969 127.937 17.9143 127.93 17.7177C127.916 17.5212 127.916 17.3247 127.916 17.1283V9.06601C127.916 8.00562 127.531 7.14185 126.774 6.48876C126.018 5.83567 124.799 5.50562 123.132 5.50562C121.465 5.50562 120.176 5.88483 119.273 6.65028C118.369 7.41573 117.879 8.56039 117.809 10.0913H118.832C118.909 8.84831 119.322 7.92135 120.085 7.31039C120.849 6.69944 121.843 6.39045 123.083 6.39045C123.777 6.39045 124.372 6.4677 124.855 6.60814C125.339 6.74859 125.731 6.94522 126.039 7.19803C126.34 7.45084 126.564 7.73876 126.711 8.0618C126.858 8.38483 126.928 8.73595 126.928 9.11517C126.928 9.59972 126.9 10.007 126.844 10.3301C126.788 10.6531 126.655 10.9199 126.438 11.1236C126.228 11.3272 125.906 11.4888 125.486 11.6081C125.065 11.7205 124.484 11.8048 123.749 11.861L122.159 11.9944C121.598 12.0435 121.024 12.1348 120.422 12.2612C119.826 12.3876 119.273 12.5983 118.783 12.8933C118.285 13.1882 117.879 13.5955 117.557 14.1081C117.235 14.6208 117.074 15.2809 117.074 16.0885C117.074 17.4228 117.473 18.4129 118.285 19.0449C119.098 19.677 120.233 20 121.703 20C122.369 20 122.978 19.9157 123.531 19.7542C124.085 19.5927 124.582 19.368 125.023 19.0801C125.458 18.7921 125.829 18.4691 126.137 18.0969C126.445 17.7317 126.676 17.3385 126.837 16.9242ZM125.752 12.4157C126.263 12.3104 126.641 12.1067 126.893 11.7978V14.3961C126.893 14.5787 126.844 14.9228 126.746 15.4354C126.648 15.948 126.417 16.4817 126.06 17.0295C125.696 17.5772 125.184 18.0618 124.498 18.4831C123.812 18.9045 122.852 19.1152 121.724 19.1152C120.597 19.1152 119.707 18.8694 119.063 18.3708C118.418 17.8722 118.096 17.1138 118.096 16.0885C118.096 15.4424 118.222 14.9087 118.474 14.5084C118.727 14.1081 119.049 13.7851 119.455 13.5534C119.861 13.3216 120.31 13.1531 120.814 13.0548C121.318 12.9565 121.815 12.8792 122.32 12.823L124.043 12.6615C124.673 12.6053 125.24 12.5211 125.752 12.4157Z" fill="white"/>
<path d="M136.251 6.69944H133.239V16.3834C133.239 16.9382 133.302 17.3806 133.428 17.7037C133.554 18.0267 133.75 18.2725 134.01 18.448C134.269 18.6236 134.584 18.7219 134.948 18.757C135.312 18.7921 135.74 18.7992 136.223 18.7851V19.677C135.705 19.7121 135.193 19.7051 134.703 19.6629C134.213 19.6208 133.778 19.4874 133.4 19.2556C133.022 19.0309 132.721 18.6938 132.497 18.2444C132.273 17.795 132.175 17.177 132.217 16.3834V6.69944H129.66V5.80759H132.217V1.49579H133.239V5.81461H136.251V6.69944Z" fill="white"/>
<path fill-rule="evenodd" clip-rule="evenodd" d="M147.254 16.9242H147.31V17.6685C147.31 17.9565 147.338 18.2163 147.38 18.4621C147.422 18.7008 147.507 18.9115 147.633 19.0941C147.759 19.2697 147.948 19.4171 148.186 19.5225C148.424 19.6278 148.753 19.684 149.167 19.684C149.454 19.684 149.734 19.6489 150 19.5787V18.7149C149.671 18.7711 149.419 18.7992 149.244 18.7992C149.012 18.7992 148.83 18.75 148.704 18.6517C148.578 18.5534 148.487 18.4199 148.438 18.2584C148.389 18.0969 148.354 17.9143 148.347 17.7177C148.333 17.5211 148.333 17.3244 148.333 17.1278V9.06601C148.333 8.00562 147.948 7.14185 147.191 6.48876C146.435 5.83567 145.216 5.50562 143.549 5.50562C141.882 5.50562 140.593 5.88483 139.69 6.65028C138.786 7.41573 138.296 8.56039 138.226 10.0913H139.249C139.326 8.84831 139.739 7.92135 140.502 7.31039C141.266 6.69944 142.26 6.39045 143.5 6.39045C144.194 6.39045 144.789 6.4677 145.272 6.60814C145.756 6.74859 146.148 6.94522 146.456 7.19803C146.757 7.45084 146.981 7.73876 147.128 8.0618C147.275 8.38483 147.345 8.73595 147.345 9.11517C147.345 9.59972 147.317 10.007 147.261 10.3301C147.205 10.6531 147.072 10.9199 146.855 11.1236C146.645 11.3272 146.323 11.4888 145.903 11.6081C145.482 11.7205 144.901 11.8048 144.166 11.861L142.576 11.9944C142.015 12.0435 141.441 12.1348 140.839 12.2612C140.243 12.3876 139.69 12.5983 139.2 12.8933C138.702 13.1882 138.296 13.5955 137.974 14.1081C137.652 14.6208 137.491 15.2809 137.491 16.0885C137.491 17.4228 137.89 18.4129 138.702 19.0449C139.515 19.677 140.65 20 142.12 20C142.786 20 143.395 19.9157 143.948 19.7542C144.502 19.5927 144.999 19.368 145.44 19.0801C145.875 18.7921 146.246 18.4691 146.554 18.0969C146.862 17.7317 147.093 17.3385 147.254 16.9242ZM146.169 12.4157C146.68 12.3104 147.058 12.1067 147.31 11.7978V14.3961C147.31 14.5787 147.261 14.9228 147.163 15.4354C147.065 15.948 146.834 16.4817 146.477 17.0295C146.113 17.5772 145.601 18.0618 144.915 18.4831C144.229 18.9045 143.269 19.1152 142.141 19.1152C141.014 19.1152 140.124 18.8694 139.48 18.3708C138.835 17.8722 138.513 17.1138 138.513 16.0885C138.513 15.4424 138.639 14.9087 138.891 14.5084C139.144 14.1081 139.466 13.7851 139.872 13.5534C140.278 13.3216 140.727 13.1531 141.231 13.0548C141.735 12.9565 142.232 12.8792 142.737 12.823L144.46 12.6615C145.09 12.6053 145.657 12.5211 146.169 12.4157Z" fill="white"/>
</svg>
