<svg width="12" height="12" viewBox="0 0 12 12" fill="none" xmlns="http://www.w3.org/2000/svg">
<path d="M1.65592 0.284112C1.27711 -0.094704 0.662927 -0.0947037 0.284112 0.284112C-0.094704 0.662928 -0.0947039 1.27711 0.284112 1.65592L4.62819 6L0.284112 10.3441C-0.0947037 10.7229 -0.094704 11.3371 0.284112 11.7159C0.662928 12.0947 1.27711 12.0947 1.65592 11.7159L6 7.37181L10.3441 11.7159C10.7229 12.0947 11.3371 12.0947 11.7159 11.7159C12.0947 11.3371 12.0947 10.7229 11.7159 10.3441L7.37181 6L11.7159 1.65592C12.0947 1.27711 12.0947 0.662928 11.7159 0.284112C11.3371 -0.0947041 10.7229 -0.0947037 10.3441 0.284112L6 4.62819L1.65592 0.284112Z" fill="white"/>
</svg>
