<svg width="18" height="16" viewBox="0 0 18 16" fill="none" xmlns="http://www.w3.org/2000/svg">
<path fill-rule="evenodd" clip-rule="evenodd" d="M16.9848 0C17.5455 0 18 0.447715 18 1C18 1.23394 17.9167 1.46047 17.7647 1.64018L12.0447 8.4L12.0457 15C12.0457 15.5523 11.5912 16 11.0305 16C10.4698 16 10.0152 15.5523 10.0152 15L10.0143 8.58166C10.0143 8.09891 10.1888 7.63243 10.5058 7.26829L15.0914 2H2.90862L7.49273 7.26862C7.80939 7.63256 7.98383 8.09869 7.9839 8.5811L7.98478 14C7.98478 14.5523 7.53025 15 6.96955 15C6.40885 15 5.95432 14.5523 5.95432 14L5.95332 8.401L0.235335 1.64018C-0.123615 1.21591 -0.0654177 0.585343 0.365322 0.231779C0.547774 0.0820162 0.777757 0 1.01526 0L16.9848 0Z" fill="white"/>
</svg>
