<?xml version="1.0"?><svg version="1.1" id="圖層_1" xmlns="http://www.w3.org/2000/svg" x="0" y="0" viewBox="0 0 100 100" xml:space="preserve"><path id="XMLID_4_" d="M78.505 36.732c1.205 0 1.834 1.492 1.02 2.417L51.02 71.548a1.352 1.352 0 0 1-1.02.468c-.373 0-.746-.156-1.02-.468L20.475 39.15c-.814-.925-.184-2.417 1.02-2.417h19.82V11.734c0-1.115.867-2.019 1.937-2.019h13.495c1.07 0 1.937.904 1.937 2.019v24.998h19.821z" fill="#333"/><g><path d="M78.142 90.284H21.858A1.858 1.858 0 0 1 20 88.426v-8.284c0-1.026.832-1.858 1.858-1.858h56.284c1.026 0 1.858.832 1.858 1.858v8.284a1.858 1.858 0 0 1-1.858 1.858z" fill="#666"/></g><metadata xmlns:d="https://loading.io/stock/">
<d:name>lowercase</d:name>
<d:tags>download,arrow,save,keep,get,bottom,lowercase,form</d:tags>
<d:license>by</d:license>
<d:slug>wnpemn</d:slug>
</metadata></svg>