<svg width="20" height="20" viewBox="0 0 20 20" fill="none" xmlns="http://www.w3.org/2000/svg">
<path fill-rule="evenodd" clip-rule="evenodd" d="M11.4194 0.790425C11.3206 0.329376 10.9131 0 10.4416 0H9.55815C9.08673 0 8.67934 0.329236 8.58042 0.790157L8.17226 2.69191C8.09504 3.05171 7.8242 3.3345 7.48088 3.46697C7.37317 3.50854 7.26674 3.55269 7.16167 3.59934C6.8251 3.74882 6.43329 3.74041 6.12408 3.54036L4.49152 2.48415C4.09564 2.22802 3.57463 2.28324 3.24122 2.61665L2.61665 3.24122C2.28324 3.57463 2.22802 4.09563 2.48415 4.49152L3.54036 6.12408C3.74041 6.43329 3.74882 6.8251 3.59934 7.16167C3.55269 7.26674 3.50854 7.37316 3.46697 7.48088C3.3345 7.8242 3.05171 8.09504 2.69191 8.17226L0.790157 8.58042C0.329236 8.67934 0 9.08673 0 9.55815V10.4416C0 10.9131 0.329375 11.3206 0.790424 11.4194L2.69131 11.8268C3.05127 11.904 3.33422 12.1749 3.4667 12.5184C3.50834 12.6264 3.55258 12.733 3.59935 12.8383C3.74882 13.1749 3.74041 13.5667 3.54036 13.8759L2.48415 15.5085C2.22802 15.9044 2.28324 16.4254 2.61665 16.7588L3.24122 17.3834C3.57463 17.7168 4.09563 17.772 4.49152 17.5159L6.12408 16.4596C6.43329 16.2596 6.8251 16.2512 7.16167 16.4007C7.26674 16.4473 7.37316 16.4915 7.48088 16.533C7.8242 16.6655 8.09504 16.9483 8.17226 17.3081L8.58042 19.2098C8.67934 19.6708 9.08673 20 9.55815 20H10.4416C10.9131 20 11.3206 19.6706 11.4194 19.2096L11.8268 17.3087C11.904 16.9487 12.1749 16.6658 12.5184 16.5333C12.6264 16.4917 12.733 16.4474 12.8383 16.4007C13.1749 16.2512 13.5667 16.2596 13.8759 16.4596L15.5085 17.5159C15.9044 17.772 16.4254 17.7168 16.7588 17.3834L17.3834 16.7588C17.7168 16.4254 17.772 15.9044 17.5159 15.5085L16.4596 13.8759C16.2596 13.5667 16.2512 13.1749 16.4007 12.8383C16.4473 12.7333 16.4915 12.6268 16.533 12.5191C16.6655 12.1758 16.9483 11.905 17.3081 11.8277L19.2098 11.4196C19.6708 11.3207 20 10.9133 20 10.4418V9.55815C20 9.08673 19.6708 8.67934 19.2098 8.58042L17.3081 8.17226C16.9483 8.09504 16.6655 7.8242 16.533 7.48088C16.4914 7.37291 16.4471 7.26623 16.4003 7.16091C16.2507 6.8242 16.2592 6.4322 16.4594 6.12291L17.5155 4.4916C17.7718 4.09569 17.7167 3.57453 17.3832 3.24104L16.7588 2.61665C16.4254 2.28324 15.9044 2.22802 15.5085 2.48415L13.8759 3.54036C13.5667 3.74041 13.1749 3.74882 12.8383 3.59935C12.733 3.55258 12.6264 3.50834 12.5184 3.4667C12.1749 3.33422 11.904 3.05128 11.8268 2.69131L11.4194 0.790425ZM10 14.5455C12.5104 14.5455 14.5455 12.5104 14.5455 10C14.5455 7.48961 12.5104 5.45455 10 5.45455C7.48961 5.45455 5.45455 7.48961 5.45455 10C5.45455 12.5104 7.48961 14.5455 10 14.5455Z" fill="white"/>
</svg>
