<svg width="20" height="14" viewBox="0 0 20 14" fill="none" xmlns="http://www.w3.org/2000/svg">
<path d="M0 1C0 0.447716 0.447716 0 1 0H15C15.5523 0 16 0.447716 16 1C16 1.55228 15.5523 2 15 2H1C0.447716 2 0 1.55228 0 1Z" fill="white"/>
<path d="M4 7C4 6.44772 4.44772 6 5 6H19C19.5523 6 20 6.44772 20 7C20 7.55228 19.5523 8 19 8H5C4.44772 8 4 7.55228 4 7Z" fill="white"/>
<path d="M1 12C0.447716 12 0 12.4477 0 13C0 13.5523 0.447716 14 1 14H15C15.5523 14 16 13.5523 16 13C16 12.4477 15.5523 12 15 12H1Z" fill="white"/>
</svg>
