<svg width="16" height="16" viewBox="0 0 16 16" fill="none" xmlns="http://www.w3.org/2000/svg">
<path fill-rule="evenodd" clip-rule="evenodd" d="M16 8C16 12.4183 12.4183 16 8 16C3.58172 16 0 12.4183 0 8C0 3.58172 3.58172 0 8 0C12.4183 0 16 3.58172 16 8ZM7 2C7 1.44772 7.44772 1 8 1C8.55229 1 9 1.44772 9 2V7.8453L12.0981 9.63398C12.5764 9.91012 12.7402 10.5217 12.4641 11C12.188 11.4783 11.5764 11.6422 11.0981 11.366L8.98907 10.1484C8.91738 10.6303 8.50186 11 8 11C7.44772 11 7 10.5523 7 10V9L5.90192 8.36603C5.42363 8.08988 5.25976 7.47829 5.5359 7C5.81204 6.52171 6.42363 6.35783 6.90192 6.63398L7 6.6906V2Z" fill="white"/>
</svg>
